RBDS002runT25_grf
version=1
nRows=34
nColumns=19
inDegrees=no
endheader
time	ground_force_r_vx	ground_force_r_vy	ground_force_r_vz	ground_force_r_px	ground_force_r_py	ground_force_r_pz	ground_force_r_mx	ground_force_r_my	ground_force_r_mz	ground_force_l_vx	ground_force_l_vy	ground_force_l_vz	ground_force_l_px	ground_force_l_py	ground_force_l_pz	ground_force_l_mx	ground_force_l_my	ground_force_l_mz
     22.49800000	      0.00000000	      0.00000000	      0.00000000	      0.00000000	      0.00000000	      0.00000000	      0.00000000	      0.00000000	      0.00000000	    130.76576641	    433.82833155	    -13.76536421	      1.92874323	      0.00000000	      0.95314087	      0.00000000	      3.59651986	      0.00000000
     22.49900000	      0.00000000	      0.00000000	      0.00000000	      0.00000000	      0.00000000	      0.00000000	      0.00000000	      0.00000000	      0.00000000	    128.55842883	    422.78638834	    -13.55028189	      1.92751201	      0.00000000	      0.95308872	      0.00000000	      3.50082317	      0.00000000
     22.50000000	      0.00000000	      0.00000000	      0.00000000	      0.00000000	      0.00000000	      0.00000000	      0.00000000	      0.00000000	      0.00000000	    126.35109125	    411.74444514	    -13.33519957	      1.92628079	      0.00000000	      0.95303657	      0.00000000	      3.40512648	      0.00000000
     22.50100000	      0.00000000	      0.00000000	      0.00000000	      0.00000000	      0.00000000	      0.00000000	      0.00000000	      0.00000000	      0.00000000	    124.04288748	    401.07205923	    -13.10065865	      1.92518900	      0.00000000	      0.95294571	      0.00000000	      3.31871943	      0.00000000
     22.50200000	      0.00000000	      0.00000000	      0.00000000	      0.00000000	      0.00000000	      0.00000000	      0.00000000	      0.00000000	      0.00000000	    121.73468371	    390.39967332	    -12.86611773	      1.92409722	      0.00000000	      0.95285485	      0.00000000	      3.23231239	      0.00000000
     22.50300000	      0.00000000	      0.00000000	      0.00000000	      0.00000000	      0.00000000	      0.00000000	      0.00000000	      0.00000000	      0.00000000	    119.42647994	    379.72728742	    -12.63157681	      1.92300544	      0.00000000	      0.95276400	      0.00000000	      3.14590534	      0.00000000
     22.50400000	      0.00000000	      0.00000000	      0.00000000	      0.00000000	      0.00000000	      0.00000000	      0.00000000	      0.00000000	      0.00000000	    117.07078080	    369.32081704	    -12.38928177	      1.92200991	      0.00000000	      0.95264662	      0.00000000	      3.06684270	      0.00000000
     22.50500000	      0.00000000	      0.00000000	      0.00000000	      0.00000000	      0.00000000	      0.00000000	      0.00000000	      0.00000000	      0.00000000	    114.69133397	    359.04730443	    -12.14310966	      1.92106251	      0.00000000	      0.95251599	      0.00000000	      2.99145225	      0.00000000
     22.50600000	      0.00000000	      0.00000000	      0.00000000	      0.00000000	      0.00000000	      0.00000000	      0.00000000	      0.00000000	      0.00000000	    112.31188715	    348.77379183	    -11.89693756	      1.92011511	      0.00000000	      0.95238536	      0.00000000	      2.91606181	      0.00000000
     22.50700000	      0.00000000	      0.00000000	      0.00000000	      0.00000000	      0.00000000	      0.00000000	      0.00000000	      0.00000000	      0.00000000	    109.91873783	    338.64242086	    -11.64935010	      1.91921672	      0.00000000	      0.95224142	      0.00000000	      2.84483688	      0.00000000
     22.50800000	      0.00000000	      0.00000000	      0.00000000	      0.00000000	      0.00000000	      0.00000000	      0.00000000	      0.00000000	      0.00000000	    107.49818351	    328.79533317	    -11.39893190	      1.91841634	      0.00000000	      0.95207083	      0.00000000	      2.78194295	      0.00000000
     22.50900000	      0.00000000	      0.00000000	      0.00000000	      0.00000000	      0.00000000	      0.00000000	      0.00000000	      0.00000000	      0.00000000	    105.07762920	    318.94824549	    -11.14851371	      1.91761596	      0.00000000	      0.95190025	      0.00000000	      2.71904902	      0.00000000
     22.51000000	      0.00000000	      0.00000000	      0.00000000	      0.00000000	      0.00000000	      0.00000000	      0.00000000	      0.00000000	      0.00000000	    102.65707489	    309.10115780	    -10.89809552	      1.91681558	      0.00000000	      0.95172967	      0.00000000	      2.65615509	      0.00000000
     22.51100000	      0.00000000	      0.00000000	      0.00000000	      0.00000000	      0.00000000	      0.00000000	      0.00000000	      0.00000000	      0.00000000	    100.22543072	    299.70594539	    -10.65019800	      1.91616232	      0.00000000	      0.95151995	      0.00000000	      2.60691993	      0.00000000
     22.51200000	      0.00000000	      0.00000000	      0.00000000	      0.00000000	      0.00000000	      0.00000000	      0.00000000	      0.00000000	      0.00000000	     97.79378656	    290.31073298	    -10.40230048	      1.91550907	      0.00000000	      0.95131022	      0.00000000	      2.55768477	      0.00000000
     22.51300000	      0.00000000	      0.00000000	      0.00000000	      0.00000000	      0.00000000	      0.00000000	      0.00000000	      0.00000000	      0.00000000	     95.36214239	    280.91552057	    -10.15440296	      1.91485581	      0.00000000	      0.95110050	      0.00000000	      2.50844962	      0.00000000
     22.51400000	      0.00000000	      0.00000000	      0.00000000	      0.00000000	      0.00000000	      0.00000000	      0.00000000	      0.00000000	      0.00000000	     92.94262102	    271.83692964	     -9.91218485	      1.91429892	      0.00000000	      0.95086591	      0.00000000	      2.46884227	      0.00000000
     22.51500000	      0.00000000	      0.00000000	      0.00000000	      0.00000000	      0.00000000	      0.00000000	      0.00000000	      0.00000000	      0.00000000	     90.52916105	    262.91664945	     -9.67280644	      1.91379020	      0.00000000	      0.95061888	      0.00000000	      2.43404883	      0.00000000
     22.51600000	      0.00000000	      0.00000000	      0.00000000	      0.00000000	      0.00000000	      0.00000000	      0.00000000	      0.00000000	      0.00000000	     88.11570108	    253.99636926	     -9.43342802	      1.91328149	      0.00000000	      0.95037186	      0.00000000	      2.39925539	      0.00000000
     22.51700000	      0.00000000	      0.00000000	      0.00000000	      0.00000000	      0.00000000	      0.00000000	      0.00000000	      0.00000000	      0.00000000	     85.71761166	    245.24120455	     -9.19859219	      1.91281918	      0.00000000	      0.95011339	      0.00000000	      2.36939411	      0.00000000
     22.51800000	      0.00000000	      0.00000000	      0.00000000	      0.00000000	      0.00000000	      0.00000000	      0.00000000	      0.00000000	      0.00000000	     83.35026332	    236.81627080	     -8.97284151	      1.91244967	      0.00000000	      0.94983199	      0.00000000	      2.34939713	      0.00000000
     22.51900000	      0.00000000	      0.00000000	      0.00000000	      0.00000000	      0.00000000	      0.00000000	      0.00000000	      0.00000000	      0.00000000	     80.98291498	    228.39133706	     -8.74709083	      1.91208016	      0.00000000	      0.94955060	      0.00000000	      2.32940015	      0.00000000
     22.52000000	      0.00000000	      0.00000000	      0.00000000	      0.00000000	      0.00000000	      0.00000000	      0.00000000	      0.00000000	      0.00000000	     78.61556664	    219.96640331	     -8.52134015	      1.91171065	      0.00000000	      0.94926920	      0.00000000	      2.30940318	      0.00000000
     22.52100000	      0.00000000	      0.00000000	      0.00000000	      0.00000000	      0.00000000	      0.00000000	      0.00000000	      0.00000000	      0.00000000	     76.32034748	    212.05437338	     -8.31334474	      1.91147228	      0.00000000	      0.94895742	      0.00000000	      2.30409668	      0.00000000
     22.52200000	      0.00000000	      0.00000000	      0.00000000	      0.00000000	      0.00000000	      0.00000000	      0.00000000	      0.00000000	      0.00000000	     74.02512831	    204.14234345	     -8.10534933	      1.91123392	      0.00000000	      0.94864564	      0.00000000	      2.29879019	      0.00000000
     22.52300000	      0.00000000	      0.00000000	      0.00000000	      0.00000000	      0.00000000	      0.00000000	      0.00000000	      0.00000000	      0.00000000	     71.72990914	    196.23031352	     -7.89735393	      1.91099556	      0.00000000	      0.94833386	      0.00000000	      2.29348370	      0.00000000
     22.52400000	      0.00000000	      0.00000000	      0.00000000	      0.00000000	      0.00000000	      0.00000000	      0.00000000	      0.00000000	      0.00000000	     69.49850924	    188.66989202	     -7.70325351	      1.91083754	      0.00000000	      0.94800514	      0.00000000	      2.29758427	      0.00000000
     22.52500000	      0.00000000	      0.00000000	      0.00000000	      0.00000000	      0.00000000	      0.00000000	      0.00000000	      0.00000000	      0.00000000	     67.29901899	    181.28527472	     -7.51610059	      1.91071971	      0.00000000	      0.94766796	      0.00000000	      2.30638837	      0.00000000
     22.52600000	      0.00000000	      0.00000000	      0.00000000	      0.00000000	      0.00000000	      0.00000000	      0.00000000	      0.00000000	      0.00000000	     65.09952873	    173.90065743	     -7.32894766	      1.91060187	      0.00000000	      0.94733078	      0.00000000	      2.31519247	      0.00000000
     22.52700000	      0.00000000	      0.00000000	      0.00000000	      0.00000000	      0.00000000	      0.00000000	      0.00000000	      0.00000000	      0.00000000	     62.93886252	    166.69560252	     -7.14941639	      1.91051991	      0.00000000	      0.94698710	      0.00000000	      2.32835163	      0.00000000
     22.52800000	      0.00000000	      0.00000000	      0.00000000	      0.00000000	      0.00000000	      0.00000000	      0.00000000	      0.00000000	      0.00000000	     60.85584441	    159.84967236	     -6.98512842	      1.91050969	      0.00000000	      0.94663041	      0.00000000	      2.35022093	      0.00000000
     22.52900000	      0.00000000	      0.00000000	      0.00000000	      0.00000000	      0.00000000	      0.00000000	      0.00000000	      0.00000000	      0.00000000	     58.77282630	    153.00374221	     -6.82084044	      1.91049947	      0.00000000	      0.94627371	      0.00000000	      2.37209023	      0.00000000
     22.53000000	      0.00000000	      0.00000000	      0.00000000	      0.00000000	      0.00000000	      0.00000000	      0.00000000	      0.00000000	      0.00000000	     56.68980819	    146.15781205	     -6.65655246	      1.91048925	      0.00000000	      0.94591702	      0.00000000	      2.39395953	      0.00000000
     22.53100000	      0.00000000	      0.00000000	      0.00000000	      0.00000000	      0.00000000	      0.00000000	      0.00000000	      0.00000000	      0.00000000	     54.74079074	    139.85841141	     -6.51610090	      1.91057183	      0.00000000	      0.94554745	      0.00000000	      2.42741480	      0.00000000
